<svg width="32" height="32" viewBox="0 0 32 32" fill="none" xmlns="http://www.w3.org/2000/svg">
<rect width="32" height="32" fill="white"/>
<path fill-rule="evenodd" clip-rule="evenodd" d="M4.66634 13.3335C4.66634 8.54703 8.54654 4.66683 13.333 4.66683C18.1195 4.66683 21.9997 8.54703 21.9997 13.3335C21.9997 18.12 18.1195 22.0002 13.333 22.0002C8.54654 22.0002 4.66634 18.12 4.66634 13.3335ZM13.333 3.3335C7.81016 3.3335 3.33301 7.81065 3.33301 13.3335C3.33301 18.8563 7.81016 23.3335 13.333 23.3335C15.8545 23.3335 18.158 22.4003 19.917 20.8603L20.5699 21.5132L27.5283 28.4716L28.4711 27.5288L21.491 20.5487L20.8598 19.9175C22.3998 18.1585 23.333 15.855 23.333 13.3335C23.333 7.81065 18.8559 3.3335 13.333 3.3335Z" fill="black"/>
</svg>
